<!--Generator: Adobe Illustrator 26.0.2, SVG Export Plug-In . SVG Version: 6.00 Build 0)-->
<svg xmlns="http://www.w3.org/2000/svg" xml:space="preserve" id="Ebene_1" width="144" height="78.01" x="0" y="0" version="1.1">
  <style id="style1" type="text/css">
    .st1{fill:#FFFFFF;}
	.st2{fill:none;}
	.st3{fill:#2092D1;}
	.st4{fill:#D71017;}
	.st5{fill:#E34830;}
	.st6{fill:#D60066;}
	.st7{fill:#EB6808;}
	.st8{fill:#85AD28;}
  </style>
  <g id="g1" transform="translate(-49.5 -56.9)">
    <path id="path1" d="m190.5 65.8-38.6-8.9-35 11.9-6.9 23.7L53.6 94l-4.1 21 17.7 6.8.9.3 24-4.6 10.6 10.9c2.5.3 44.2 7.5 45 6.4l27.3-9.1 18.5-29.1v-2.2z" class="st1"/>
  </g>
  <path id="path2" d="m69.6 14.1-7.1 24.3-56.1 1.5-3.2 16.2L18.6 62l24.8-4.7 11.1 11.3c2.3.2 41.9 7.1 43 6.2l25.8-8.6 17.5-27.4v-1.3L138 11.2 102.4 3Z" class="st2"/>
  <path id="path3" d="m91.8 6.6-22.2 7.5-3.7 12.7 27.4 14.7Z" class="st3"/>
  <path id="path4" d="M65.9 26.8 64.1 33l29.2 8.5Z" class="st4"/>
  <path id="path5" d="m64.1 33-1.6 5.5L6.4 40 3.2 56.2l12.2 4.7 77.9-19.3Z" class="st5"/>
  <path id="path6" d="M18.6 62.1s24.8-4.7 24.9-4.7l11.1 11.3c2.3.2 41.9 7.1 43 6.2l20.5-6.8-24.6-26.6-77.9 19.3Z" class="st6"/>
  <path id="path7" d="m117.9 68 5.4-1.8 17.5-27.4v-1.3L138 11.2h-.1L93.4 41.5Z" class="st7"/>
  <path id="path8" d="m91.8 6.6 1.6 34.9 44.5-30.3L102.4 3Z" class="st8"/>
  <path id="path9" d="M88.8 58.1c0 1 .6 1.1 1.3 1l-.8 7.6c-.6 4.2 6.6 5.2 6.2.7 0-.8-.8-.1-1.3-.2-1.9-1-.2-2.1-.1-8.1 1.8.4 2.7-1.6 2.3-3.1-.2-.3-1.7-.1-2-.1.2-2.1 1-3.8-2.1-3.5-2.4-.3-1.7 2.1-2 3.5-1-.1-1.4.4-1.5 2.2" class="st1"/>
  <path id="path10" d="M77.5 64.3c-.4-2.7 1.6-7.3 4.7-4.7-.5 2.8-.3 1.7-.7 5.9-1.4 2.4-4.1 2-4-1.2m-2.4-6.2c-4.2 5-.3 17.3 6.5 10.2.6 3.3 7.2 2.2 5.5-1.3-.7.3-1.7.3-1.6-.7 0-.2.8-8 1-9.7-.2-1.1-3.7-1.1-3.7.6-2.1-2.4-6.1-1.8-7.7.9" class="st1"/>
  <path id="path11" d="M79.9 44.9c-4.6-.3-1.4-10.8 2.8-7.2-.4 1.4.1 7.3-2.8 7.2m1.8 1.7c.3 4.3-4.3 5.3-7.4 3.2-2.2 2.8 1.5 4.6 4.5 4.3 9 .3 6.9-13.6 8.1-19.3-.1-1-3.7-1.1-3.7.6-10.9-8.3-13.6 19.7-1.5 11.2" class="st1"/>
  <path id="path12" d="M82.5 20.8c-.1 1-.5 5.1-.6 5.9-1.4 2.6-4.5 2-4.3-1.1-.4-2.8 1.7-7.3 4.9-4.8m5 9.4c0-.5.6-2.2-.3-1.9-2.9.4-.3-5.4.3-16.6-.2-1-1.6-.8-2.3-.9-1.1 0-1.7.3-1.7.9l-.7 6.3c-11.9-7.1-12.3 21.6-.9 11.5.3 2.2 4.7 3 5.6.7" class="st1"/>
  <path id="path13" d="M90.2 34c-1.4 0-1.8.2-1.7 1.1l3 12.7c.2.9 3.7.8 4 0l5.8-12.7c.9-1.5-3.5-1.3-3.8-.5-1 2.5-2.5 5.5-3.3 8.3h-.1c-.1-2.1-1.1-6.3-1.5-8.3 0-.7-1.7-.6-2.4-.6Z" class="st1"/>
  <path id="path14" d="M97.8 20.9c-.5 2.8-.3 1.7-.7 5.9-5.6 6.7-5.4-10.6.7-5.9m4.9 9.2c1-4.9-2.9 2.7-1.1-7.6l.5-4.7c-.2-1-3.8-1.1-3.8.6-11.4-8.5-12.9 21.3-1.2 11.2.3 2.2 4.7 2.9 5.6.5" class="st1"/>
  <path id="path15" d="M103.3 44.1c-.9-.1-2.7 0-2.6.9-.1 1.2-.9 3.8 1.3 3.4.9.1 2.7 0 2.6-.9 0-1.3 1.2-3.7-1.3-3.4" class="st1"/>
  <path id="path16" d="M111.6 19.4c.9-2 .5-2.6-1.6-2.3.2-2.1 1-3.8-2.1-3.4-2.4-.3-1.7 2.1-2 3.4-1.6-.7-2.6 3.6-.3 3.2l-.8 7.6c-.6 4.2 6.6 5.2 6.2.7 0-.5-.3-.4-.6-.3-2.9.2-.9-2.1-.7-8 .7.1 1.7 0 1.9-.9" class="st1"/>
  <path id="path17" d="M122.2 20.9c-.5 2.8-.3 1.7-.7 5.9-5.6 6.7-5.4-10.6.7-5.9m4.9 9.2c1-4.9-2.9 2.7-1.1-7.6l.5-4.7c-.2-1-3.7-1.1-3.7.6-11.4-8.5-12.9 21.3-1.2 11.2.2 2.2 4.6 2.9 5.5.5" class="st1"/>
  <path id="path18" d="M134.2 28c.1-.9-1.6-.9-2.4-.9-2.4-.3-1.7 2-2 3.4 0 1.2 1.7.8 2.4.9 2.4.3 1.7-2 2-3.4z" class="st1"/>
</svg>
